<svg width="720" height="1280" viewBox="0 0 720 1280" fill="none" xmlns="http://www.w3.org/2000/svg">
<g clip-path="url(#clip0_105_17)">
<rect x="719.5" y="0.5" width="94" height="94" transform="rotate(90 719.5 0.5)" stroke="white" stroke-opacity="0.11"/>
<rect x="638.5" y="112.5" width="94" height="94" transform="rotate(90 638.5 112.5)" stroke="white" stroke-opacity="0.11"/>
<rect x="500.5" y="179.5" width="94" height="94" transform="rotate(90 500.5 179.5)" stroke="white" stroke-opacity="0.11"/>
<rect x="709.5" y="237.5" width="94" height="94" transform="rotate(90 709.5 237.5)" stroke="white" stroke-opacity="0.11"/>
<rect x="581.5" y="302.5" width="94" height="94" transform="rotate(90 581.5 302.5)" stroke="white" stroke-opacity="0.11"/>
<rect x="514.5" y="17.5" width="94" height="94" transform="rotate(90 514.5 17.5)" stroke="white" stroke-opacity="0.11"/>
<rect x="419.5" y="349.5" width="94" height="94" transform="rotate(90 419.5 349.5)" stroke="white" stroke-opacity="0.11"/>
<rect x="274.5" y="444.5" width="94" height="94" transform="rotate(90 274.5 444.5)" stroke="white" stroke-opacity="0.11"/>
<rect x="301.5" y="207.5" width="94" height="94" transform="rotate(90 301.5 207.5)" stroke="white" stroke-opacity="0.11"/>
<rect x="396.5" y="663.5" width="94" height="94" transform="rotate(90 396.5 663.5)" stroke="white" stroke-opacity="0.11"/>
<rect x="709.5" y="1185.5" width="94" height="94" transform="rotate(90 709.5 1185.5)" stroke="white" stroke-opacity="0.11"/>
<rect x="638.5" y="1076.5" width="94" height="94" transform="rotate(90 638.5 1076.5)" stroke="white" stroke-opacity="0.11"/>
<rect x="443.5" y="1171.5" width="94" height="94" transform="rotate(90 443.5 1171.5)" stroke="white" stroke-opacity="0.11"/>
</g>
<defs>
<clipPath id="clip0_105_17">
<rect width="1280" height="720" fill="white" transform="translate(720) rotate(90)"/>
</clipPath>
</defs>
</svg>
