<svg width="2255" height="1119" viewBox="0 0 2255 1119" fill="none" xmlns="http://www.w3.org/2000/svg">
<g clip-path="url(#clip0_1_93)">
<rect x="859.671" y="1157.04" width="107.969" height="107.969" transform="rotate(-90 859.671 1157.04)" stroke="#B6B5B5"/>
<rect x="880.254" y="935.469" width="107.969" height="107.969" transform="rotate(-90 880.254 935.469)" stroke="#B6B5B5"/>
<rect x="0.5" y="0.5" width="117.385" height="117.385" transform="matrix(4.37114e-08 1 1 -4.37114e-08 1530.19 25.9999)" stroke="#B6B5B5"/>
<rect x="0.5" y="0.5" width="117.385" height="117.385" transform="matrix(4.37114e-08 1 1 -4.37114e-08 1471 266.715)" stroke="#B6B5B5"/>
<rect x="0.5" y="0.5" width="117.385" height="117.385" transform="matrix(4.37114e-08 1 1 -4.37114e-08 1540.72 521.9)" stroke="#B6B5B5"/>
<rect x="0.5" y="0.5" width="117.385" height="117.385" transform="matrix(4.37114e-08 1 1 -4.37114e-08 1563.08 762.615)" stroke="#B6B5B5"/>
<circle cx="1731" cy="1441" r="375.5" transform="rotate(-90 1731 1441)" stroke="#3D3D3D" stroke-width="3"/>
<circle cx="1019" cy="-281" r="688" transform="rotate(-90 1019 -281)" stroke="#4B4B4B" stroke-width="4"/>
</g>
<defs>
<clipPath id="clip0_1_93">
<rect width="2255" height="1119" fill="white"/>
</clipPath>
</defs>
</svg>
