<svg width="70" height="80" viewBox="0 0 220 220" fill="none" xmlns="http://www.w3.org/2000/svg">
<path fill-rule="evenodd" clip-rule="evenodd" d="M135.483 33.5592C136.854 34.0159 138.121 34.7382 139.212 35.6847C140.304 36.6312 141.198 37.7834 141.844 39.0756C142.49 40.3677 142.876 41.7745 142.978 43.2155C143.08 44.6566 142.898 46.1037 142.441 47.4742L98.4408 179.474C97.5194 182.243 95.5358 184.533 92.9262 185.839C90.3166 187.146 87.2949 187.362 84.5258 186.441C81.7567 185.519 79.4671 183.536 78.1606 180.926C76.8541 178.317 76.6378 175.295 77.5592 172.526L121.559 40.5258C122.482 37.7576 124.466 35.4689 127.075 34.1626C129.684 32.8563 132.705 32.6393 135.474 33.5592H135.483ZM62.7733 69.2175C64.8361 71.2804 65.9949 74.0782 65.9949 76.9954C65.9949 79.9127 64.8361 82.7105 62.7733 84.7733L37.5558 110L62.7733 135.227C63.8541 136.234 64.7209 137.448 65.3221 138.797C65.9233 140.147 66.2466 141.603 66.2727 143.08C66.2987 144.557 66.027 146.024 65.4738 147.394C64.9206 148.764 64.0971 150.008 63.0526 151.053C62.008 152.097 60.7638 152.921 59.3941 153.474C58.0244 154.027 56.5573 154.299 55.0803 154.273C53.6034 154.247 52.1468 153.923 50.7974 153.322C49.4481 152.721 48.2337 151.854 47.2267 150.773L14.2267 117.773C12.1667 115.711 11.0097 112.915 11.0097 110C11.0097 107.085 12.1667 104.289 14.2267 102.227L47.2267 69.2267C49.2892 67.1667 52.085 66.0097 55 66.0097C57.915 66.0097 60.7108 67.1667 62.7733 69.2267V69.2175ZM157.227 69.2175C159.289 67.1576 162.085 66.0005 165 66.0005C167.915 66.0005 170.711 67.1576 172.773 69.2175L205.773 102.218C207.836 104.28 208.995 107.078 208.995 109.995C208.995 112.913 207.836 115.71 205.773 117.773L172.773 150.773C171.766 151.854 170.552 152.721 169.203 153.322C167.853 153.923 166.397 154.247 164.92 154.273C163.443 154.299 161.976 154.027 160.606 153.474C159.236 152.921 157.992 152.097 156.947 151.053C155.903 150.008 155.079 148.764 154.526 147.394C153.973 146.024 153.701 144.557 153.727 143.08C153.753 141.603 154.077 140.147 154.678 138.797C155.279 137.448 156.146 136.234 157.227 135.227L182.444 110L157.227 84.7733C155.167 82.7108 154.01 79.915 154.01 77C154.01 74.085 155.167 71.2892 157.227 69.2267V69.2175Z" fill="url(#paint0_linear_108_2)"/>
<defs>
<linearGradient id="paint0_linear_108_2" x1="11" y1="65" x2="209" y2="154" gradientUnits="userSpaceOnUse">
<stop stop-color="#0AC3CF"/>
<stop offset="1" stop-color="#04ACB7" stop-opacity="0"/>
</linearGradient>
</defs>
</svg>
