<svg width="300" height="80" viewBox="0 0 188 71" fill="none" xmlns="http://www.w3.org/2000/svg">
<path d="M79.2836 70.2093C78.2383 70.2093 77.4383 69.9213 76.8836 69.3453C76.3289 68.7906 76.0516 67.9906 76.0516 66.9453V59.6813C76.0516 58.7853 75.8809 58.1453 75.5396 57.7613C75.1983 57.3773 74.6223 57.1533 73.8116 57.0893L72.9476 57.0253V55.0413L73.8116 54.9773C74.6223 54.9346 75.1983 54.7213 75.5396 54.3373C75.8809 53.9319 76.0516 53.2919 76.0516 52.4173V45.1533C76.0516 44.1079 76.3289 43.3079 76.8836 42.7533C77.4383 42.1773 78.2383 41.8893 79.2836 41.8893H82.4196V43.9373H80.0516C79.1129 43.9373 78.6436 44.4173 78.6436 45.3773V52.6733C78.6436 53.5266 78.4303 54.2626 78.0036 54.8813C77.5769 55.4999 77.0223 55.8839 76.3396 56.0333C77.0223 56.1826 77.5769 56.5666 78.0036 57.1853C78.4303 57.8039 78.6436 58.5399 78.6436 59.3933V66.7213C78.6436 67.6813 79.1129 68.1613 80.0516 68.1613H82.4196V70.2093H79.2836ZM107.698 70.2093V68.1613H110.066C110.983 68.1613 111.442 67.6813 111.442 66.7213V59.3933C111.442 58.5399 111.655 57.8039 112.082 57.1853C112.53 56.5666 113.095 56.1826 113.778 56.0333C113.095 55.8839 112.53 55.4999 112.082 54.8813C111.655 54.2626 111.442 53.5266 111.442 52.6733V45.3773C111.442 44.4173 110.983 43.9373 110.066 43.9373H107.698V41.8893H110.834C111.858 41.8893 112.647 42.1773 113.202 42.7533C113.757 43.3079 114.034 44.1079 114.034 45.1533V52.4173C114.034 53.2919 114.205 53.9319 114.546 54.3373C114.887 54.7213 115.463 54.9346 116.274 54.9773L117.138 55.0413V57.0253L116.274 57.0893C115.463 57.1319 114.887 57.3559 114.546 57.7613C114.205 58.1453 114.034 58.7853 114.034 59.6813V66.9453C114.034 67.9906 113.757 68.7906 113.202 69.3453C112.647 69.9213 111.858 70.2093 110.834 70.2093H107.698Z" fill="#0038FF"/>
<path d="M95.0456 64.7373C92.8909 64.7373 91.0243 64.2679 89.4456 63.3293C87.8669 62.3693 86.6403 61.0253 85.7656 59.2973C84.9123 57.5479 84.4856 55.4999 84.4856 53.1533C84.4856 50.7853 84.9123 48.7373 85.7656 47.0093C86.6403 45.2813 87.8669 43.9479 89.4456 43.0093C91.0243 42.0706 92.8909 41.6013 95.0456 41.6013C97.1789 41.6013 99.0349 42.0706 100.614 43.0093C102.214 43.9479 103.44 45.2813 104.294 47.0093C105.168 48.7373 105.606 50.7746 105.606 53.1213C105.606 55.4893 105.168 57.5479 104.294 59.2973C103.44 61.0253 102.214 62.3693 100.614 63.3293C99.0349 64.2679 97.1789 64.7373 95.0456 64.7373ZM95.0456 61.8573C97.2856 61.8573 99.0243 61.0999 100.262 59.5853C101.52 58.0493 102.15 55.9053 102.15 53.1533C102.15 50.4013 101.531 48.2679 100.294 46.7533C99.0563 45.2386 97.3069 44.4813 95.0456 44.4813C92.8056 44.4813 91.0563 45.2386 89.7976 46.7533C88.5603 48.2679 87.9416 50.4013 87.9416 53.1533C87.9416 55.9053 88.5603 58.0493 89.7976 59.5853C91.0563 61.0999 92.8056 61.8573 95.0456 61.8573ZM125.892 64.7373C124.313 64.7373 123.119 64.2786 122.308 63.3613C121.519 62.4226 121.124 61.0679 121.124 59.2973V41.8893H123.716V59.1053C123.716 61.3879 124.623 62.5293 126.436 62.5293C126.969 62.5293 127.449 62.4653 127.876 62.3373L127.812 64.5133C127.151 64.6626 126.511 64.7373 125.892 64.7373ZM130.273 45.0253V42.1133H133.473V45.0253H130.273ZM130.593 64.4493V48.8973H133.185V64.4493H130.593ZM142.926 64.7373C141.86 64.7373 140.9 64.5346 140.046 64.1293C139.214 63.7026 138.553 63.1266 138.062 62.4013C137.572 61.6759 137.326 60.8653 137.326 59.9693C137.326 58.8386 137.614 57.9426 138.19 57.2813C138.788 56.6199 139.758 56.1506 141.102 55.8733C142.468 55.5746 144.324 55.4253 146.67 55.4253H147.694V54.4333C147.694 53.1106 147.417 52.1613 146.862 51.5853C146.329 50.9879 145.465 50.6893 144.27 50.6893C143.332 50.6893 142.425 50.8279 141.55 51.1053C140.676 51.3613 139.78 51.7879 138.862 52.3853L137.966 50.4973C138.777 49.9213 139.758 49.4626 140.91 49.1213C142.084 48.7799 143.204 48.6093 144.27 48.6093C146.276 48.6093 147.758 49.0999 148.718 50.0813C149.7 51.0626 150.19 52.5879 150.19 54.6573V64.4493H147.758V61.7613C147.353 62.6786 146.724 63.4039 145.87 63.9373C145.038 64.4706 144.057 64.7373 142.926 64.7373ZM143.342 62.7853C144.622 62.7853 145.668 62.3479 146.478 61.4733C147.289 60.5773 147.694 59.4466 147.694 58.0813V57.1213H146.702C144.974 57.1213 143.609 57.2066 142.606 57.3773C141.625 57.5266 140.932 57.8039 140.526 58.2093C140.142 58.5933 139.95 59.1266 139.95 59.8093C139.95 60.6839 140.249 61.3986 140.846 61.9533C141.465 62.5079 142.297 62.7853 143.342 62.7853ZM154.999 64.4493V48.8973H157.527V51.5533C158.039 50.5719 158.764 49.8359 159.703 49.3453C160.642 48.8546 161.698 48.6093 162.871 48.6093C166.562 48.6093 168.407 50.6573 168.407 54.7533V64.4493H165.815V54.9133C165.815 53.4626 165.527 52.4066 164.951 51.7453C164.396 51.0626 163.5 50.7213 162.263 50.7213C160.834 50.7213 159.692 51.1693 158.839 52.0653C158.007 52.9399 157.591 54.1133 157.591 55.5853V64.4493H154.999ZM172.867 45.0253V42.1133H176.067V45.0253H172.867ZM173.187 64.4493V48.8973H175.779V64.4493H173.187Z" fill="white"/>
<path d="M7.904 38.76C6.85867 38.76 6.05867 38.472 5.504 37.896C4.94933 37.3413 4.672 36.5413 4.672 35.496V28.232C4.672 27.336 4.50133 26.696 4.16 26.312C3.81867 25.928 3.24267 25.704 2.432 25.64L1.568 25.576V23.592L2.432 23.528C3.24267 23.4853 3.81867 23.272 4.16 22.888C4.50133 22.4827 4.672 21.8427 4.672 20.968V13.704C4.672 12.6587 4.94933 11.8587 5.504 11.304C6.05867 10.728 6.85867 10.44 7.904 10.44H11.04V12.488H8.672C7.73333 12.488 7.264 12.968 7.264 13.928V21.224C7.264 22.0773 7.05067 22.8133 6.624 23.432C6.19733 24.0507 5.64267 24.4347 4.96 24.584C5.64267 24.7333 6.19733 25.1173 6.624 25.736C7.05067 26.3547 7.264 27.0907 7.264 27.944V35.272C7.264 36.232 7.73333 36.712 8.672 36.712H11.04V38.76H7.904ZM34.9123 38.76V36.712H37.2803C38.1976 36.712 38.6562 36.232 38.6562 35.272V27.944C38.6562 27.0907 38.8696 26.3547 39.2963 25.736C39.7443 25.1173 40.3096 24.7333 40.9923 24.584C40.3096 24.4347 39.7443 24.0507 39.2963 23.432C38.8696 22.8133 38.6562 22.0773 38.6562 21.224V13.928C38.6562 12.968 38.1976 12.488 37.2803 12.488H34.9123V10.44H38.0483C39.0723 10.44 39.8616 10.728 40.4163 11.304C40.9709 11.8587 41.2483 12.6587 41.2483 13.704V20.968C41.2483 21.8427 41.4189 22.4827 41.7603 22.888C42.1016 23.272 42.6776 23.4853 43.4883 23.528L44.3523 23.592V25.576L43.4883 25.64C42.6776 25.6827 42.1016 25.9067 41.7603 26.312C41.4189 26.696 41.2483 27.336 41.2483 28.232V35.496C41.2483 36.5413 40.9709 37.3413 40.4163 37.896C39.8616 38.472 39.0723 38.76 38.0483 38.76H34.9123Z" fill="#0038FF"/>
<path d="M24.434 33.288C21.9807 33.288 19.9113 32.8293 18.226 31.912C16.5407 30.9733 15.2607 29.64 14.386 27.912C13.5327 26.184 13.106 24.1253 13.106 21.736C13.106 19.368 13.5433 17.32 14.418 15.592C15.2927 13.8427 16.562 12.4987 18.226 11.56C19.89 10.6213 21.8847 10.152 24.21 10.152C25.81 10.152 27.2927 10.3867 28.658 10.856C30.0233 11.3253 31.1647 11.9973 32.082 12.872L30.898 15.464C29.874 14.6107 28.8287 14.0027 27.762 13.64C26.6953 13.256 25.5113 13.064 24.21 13.064C21.714 13.064 19.8153 13.8213 18.514 15.336C17.2127 16.8293 16.562 18.9627 16.562 21.736C16.562 24.5733 17.2233 26.728 18.546 28.2C19.89 29.672 21.8953 30.408 24.562 30.408C26.1833 30.408 27.794 30.1413 29.394 29.608V23.56H23.89V21.064H32.178V31.688C31.218 32.1573 30.0233 32.5413 28.594 32.84C27.186 33.1387 25.7993 33.288 24.434 33.288ZM53.8423 33.288C50.1089 33.288 48.2423 31.2293 48.2423 27.112V17.448H50.8343V27.08C50.8343 28.4667 51.1116 29.4907 51.6663 30.152C52.2423 30.8133 53.1383 31.144 54.3542 31.144C55.6769 31.144 56.7543 30.7067 57.5863 29.832C58.4183 28.936 58.8343 27.752 58.8343 26.28V17.448H61.4263V33H58.8983V30.376C58.4076 31.3147 57.7143 32.04 56.8183 32.552C55.9436 33.0427 54.9516 33.288 53.8423 33.288ZM65.9557 13.576V10.664H69.1558V13.576H65.9557ZM66.2758 33V17.448H68.8678V33H66.2758ZM78.4813 33.288C76.9026 33.288 75.7079 32.8293 74.8973 31.912C74.1079 30.9733 73.7133 29.6187 73.7133 27.848V10.44H76.3053V27.656C76.3053 29.9387 77.2119 31.08 79.0253 31.08C79.5586 31.08 80.0386 31.016 80.4653 30.888L80.4013 33.064C79.7399 33.2133 79.0999 33.288 78.4813 33.288ZM83.182 33V10.44H85.774V20.008C86.286 19.0693 87.0007 18.3653 87.918 17.896C88.8567 17.4053 89.902 17.16 91.054 17.16C94.7447 17.16 96.59 19.208 96.59 23.304V33H93.998V23.464C93.998 22.0133 93.71 20.9573 93.134 20.296C92.5793 19.6133 91.6833 19.272 90.446 19.272C89.0167 19.272 87.8753 19.72 87.022 20.616C86.19 21.4907 85.774 22.664 85.774 24.136V33H83.182ZM108.378 33.288C105.924 33.288 103.983 32.5733 102.554 31.144C101.124 29.6933 100.41 27.7307 100.41 25.256C100.41 23.656 100.73 22.248 101.37 21.032C102.01 19.7947 102.884 18.8453 103.994 18.184C105.124 17.5013 106.426 17.16 107.898 17.16C110.01 17.16 111.663 17.8427 112.858 19.208C114.052 20.552 114.65 22.408 114.65 24.776V25.768H102.938C103.023 27.5387 103.535 28.8933 104.474 29.832C105.412 30.7493 106.714 31.208 108.378 31.208C109.316 31.208 110.212 31.0693 111.066 30.792C111.919 30.4933 112.73 30.0133 113.498 29.352L114.394 31.176C113.69 31.8373 112.794 32.36 111.706 32.744C110.618 33.1067 109.508 33.288 108.378 33.288ZM107.962 19.08C106.49 19.08 105.327 19.5387 104.474 20.456C103.62 21.3733 103.119 22.5787 102.97 24.072H112.41C112.346 22.4933 111.93 21.2667 111.162 20.392C110.415 19.5173 109.348 19.08 107.962 19.08ZM118.401 33V17.448H120.929V20.232C121.761 18.3547 123.467 17.32 126.049 17.128L126.977 17.032L127.169 19.272L125.537 19.464C124.065 19.592 122.945 20.0613 122.177 20.872C121.409 21.6613 121.025 22.7493 121.025 24.136V33H118.401ZM129.934 33V17.448H132.462V20.072C132.931 19.1333 133.582 18.4187 134.414 17.928C135.246 17.416 136.216 17.16 137.326 17.16C139.758 17.16 141.315 18.216 141.998 20.328C142.467 19.3467 143.16 18.5787 144.078 18.024C144.995 17.448 146.051 17.16 147.246 17.16C150.702 17.16 152.43 19.208 152.43 23.304V33H149.838V23.432C149.838 22.0027 149.582 20.9573 149.07 20.296C148.579 19.6133 147.758 19.272 146.606 19.272C145.347 19.272 144.344 19.72 143.597 20.616C142.851 21.512 142.478 22.7067 142.478 24.2V33H139.886V23.432C139.886 22.0027 139.63 20.9573 139.118 20.296C138.627 19.6133 137.806 19.272 136.654 19.272C135.374 19.272 134.36 19.72 133.614 20.616C132.888 21.512 132.526 22.7067 132.526 24.2V33H129.934ZM164.284 33.288C161.83 33.288 159.889 32.5733 158.46 31.144C157.03 29.6933 156.316 27.7307 156.316 25.256C156.316 23.656 156.636 22.248 157.276 21.032C157.916 19.7947 158.79 18.8453 159.9 18.184C161.03 17.5013 162.332 17.16 163.804 17.16C165.916 17.16 167.569 17.8427 168.764 19.208C169.958 20.552 170.556 22.408 170.556 24.776V25.768H158.844C158.929 27.5387 159.441 28.8933 160.38 29.832C161.318 30.7493 162.62 31.208 164.284 31.208C165.222 31.208 166.118 31.0693 166.972 30.792C167.825 30.4933 168.636 30.0133 169.404 29.352L170.3 31.176C169.596 31.8373 168.7 32.36 167.612 32.744C166.524 33.1067 165.414 33.288 164.284 33.288ZM163.868 19.08C162.396 19.08 161.233 19.5387 160.38 20.456C159.526 21.3733 159.025 22.5787 158.876 24.072H168.316C168.252 22.4933 167.836 21.2667 167.068 20.392C166.321 19.5173 165.254 19.08 163.868 19.08Z" fill="white"/>
</svg>
