<svg width="58" height="61" viewBox="0 0 58 61" fill="none" xmlns="http://www.w3.org/2000/svg">
<path fill-rule="evenodd" clip-rule="evenodd" d="M35.8758 11.9544C36.2338 12.0652 36.5646 12.2405 36.8495 12.4701C37.1346 12.6997 37.3681 12.9793 37.5367 13.2928C37.7054 13.6063 37.8062 13.9476 37.8328 14.2972C37.8595 14.6468 37.812 14.9979 37.6926 15.3304L26.2036 47.3553C25.963 48.0271 25.4451 48.5827 24.7637 48.8996C24.0823 49.2167 23.2933 49.2691 22.5702 49.0456C21.8472 48.8219 21.2493 48.3408 20.9082 47.7076C20.5671 47.0746 20.5106 46.3415 20.7512 45.6697L32.2401 13.6446C32.4811 12.973 32.9991 12.4177 33.6804 12.1008C34.3616 11.7839 35.1504 11.7312 35.8735 11.9544H35.8758ZM16.8904 20.6056C17.429 21.1061 17.7316 21.7849 17.7316 22.4926C17.7316 23.2004 17.429 23.8792 16.8904 24.3797L10.3058 30.5L16.8904 36.6204C17.1726 36.8647 17.3989 37.1593 17.5559 37.4865C17.7129 37.8141 17.7973 38.1673 17.8041 38.5257C17.8109 38.884 17.74 39.2399 17.5955 39.5723C17.4511 39.9047 17.236 40.2065 16.9633 40.46C16.6905 40.7133 16.3657 40.9132 16.008 41.0474C15.6504 41.1815 15.2673 41.2475 14.8816 41.2412C14.496 41.2349 14.1157 41.1563 13.7633 41.0105C13.411 40.8647 13.0939 40.6543 12.831 40.3921L4.21424 32.3858C3.67634 31.8856 3.37424 31.2072 3.37424 30.5C3.37424 29.7928 3.67634 29.1144 4.21424 28.6142L12.831 20.6078C13.3695 20.1081 14.0995 19.8273 14.8607 19.8273C15.6218 19.8273 16.3518 20.1081 16.8904 20.6078V20.6056ZM41.5534 20.6056C42.0919 20.1058 42.8219 19.8251 43.5831 19.8251C44.3442 19.8251 45.0743 20.1058 45.6127 20.6056L54.2294 28.612C54.7681 29.1122 55.0707 29.7911 55.0707 30.4988C55.0707 31.2067 54.7681 31.8853 54.2294 32.3858L45.6127 40.3921C45.3498 40.6543 45.0328 40.8647 44.6805 41.0105C44.328 41.1563 43.9478 41.2349 43.5622 41.2412C43.1765 41.2475 42.7935 41.1815 42.4357 41.0474C42.078 40.9132 41.7532 40.7133 41.4803 40.46C41.2077 40.2065 40.9926 39.9047 40.8482 39.5723C40.7038 39.2399 40.6328 38.884 40.6396 38.5257C40.6463 38.1673 40.7309 37.8141 40.8879 37.4865C41.0448 37.1593 41.2712 36.8647 41.5534 36.6204L48.1379 30.5L41.5534 24.3797C41.0156 23.8793 40.7134 23.201 40.7134 22.4937C40.7134 21.7865 41.0156 21.1082 41.5534 20.6078V20.6056Z" fill="url(#paint0_linear_1_4)"/>
<defs>
<linearGradient id="paint0_linear_1_4" x1="3.3717" y1="19.5824" x2="53.732" y2="43.9451" gradientUnits="userSpaceOnUse">
<stop stop-color="#0AC3CF"/>
<stop offset="1" stop-color="#04ACB7" stop-opacity="0"/>
</linearGradient>
</defs>
</svg>
